<svg width="48" height="52" viewBox="0 0 48 52" fill="none" xmlns="http://www.w3.org/2000/svg">
<path d="M24 22.3999C26.1217 22.3999 28.1566 21.557 29.6569 20.0568C31.1571 18.5565 32 16.5216 32 14.3999C32 12.2782 31.1571 10.2433 29.6569 8.74305C28.1566 7.24276 26.1217 6.3999 24 6.3999C21.8783 6.3999 19.8434 7.24276 18.3431 8.74305C16.8429 10.2433 16 12.2782 16 14.3999C16 16.5216 16.8429 18.5565 18.3431 20.0568C19.8434 21.557 21.8783 22.3999 24 22.3999ZM24 9.5999C26.656 9.5999 28.8 11.7439 28.8 14.3999C28.8 17.0559 26.656 19.1999 24 19.1999C21.344 19.1999 19.2 17.0559 19.2 14.3999C19.2 11.7439 21.344 9.5999 24 9.5999Z" fill="#2C3E50" fill-opacity="0.71"/>
<path d="M4.8 35.1999C5.696 35.1999 6.4 34.4959 6.4 33.5999C6.4 32.7039 5.696 31.9999 4.8 31.9999C3.904 31.9999 3.2 31.2959 3.2 30.3999C3.2 28.2782 4.04285 26.2433 5.54314 24.743C7.04344 23.2428 9.07827 22.3999 11.2 22.3999H14.4C15.296 22.3999 16 21.6959 16 20.7999C16 19.9039 15.296 19.1999 14.4 19.1999C11.744 19.1999 9.6 17.0559 9.6 14.3999C9.6 11.7439 11.744 9.5999 14.4 9.5999C15.296 9.5999 16 8.8959 16 7.9999C16 7.1039 15.296 6.3999 14.4 6.3999C12.2783 6.3999 10.2434 7.24276 8.74314 8.74305C7.24286 10.2433 6.4 12.2782 6.4 14.3999C6.4 16.3839 7.104 18.1759 8.32 19.5839C3.552 20.8639 0 25.2159 0 30.3999C0 33.0559 2.144 35.1999 4.8 35.1999ZM43.2 35.1999C45.856 35.1999 48 33.0559 48 30.3999C48 25.2159 44.48 20.8639 39.68 19.5839C40.864 18.1759 41.6 16.3839 41.6 14.3999C41.6 12.2782 40.7571 10.2433 39.2569 8.74305C37.7566 7.24276 35.7217 6.3999 33.6 6.3999C32.704 6.3999 32 7.1039 32 7.9999C32 8.8959 32.704 9.5999 33.6 9.5999C36.256 9.5999 38.4 11.7439 38.4 14.3999C38.4 17.0559 36.256 19.1999 33.6 19.1999C32.704 19.1999 32 19.9039 32 20.7999C32 21.6959 32.704 22.3999 33.6 22.3999H36.8C38.9217 22.3999 40.9566 23.2428 42.4569 24.743C43.9571 26.2433 44.8 28.2782 44.8 30.3999C44.8 31.2959 44.096 31.9999 43.2 31.9999C42.304 31.9999 41.6 32.7039 41.6 33.5999C41.6 34.4959 42.304 35.1999 43.2 35.1999ZM14.4 44.7999H33.6C36.256 44.7999 38.4 42.6559 38.4 39.9999V36.7999C38.4 30.6239 33.376 25.5999 27.2 25.5999H20.8C14.624 25.5999 9.6 30.6239 9.6 36.7999V39.9999C9.6 42.6559 11.744 44.7999 14.4 44.7999ZM27.2 28.7999C29.3217 28.7999 31.3566 29.6428 32.8569 31.143C34.3571 32.6433 35.2 34.6782 35.2 36.7999V39.9999C35.2 40.8959 34.496 41.5999 33.6 41.5999H14.4C13.504 41.5999 12.8 40.8959 12.8 39.9999V36.7999C12.8 34.6782 13.6429 32.6433 15.1431 31.143C16.6434 29.6428 18.6783 28.7999 20.8 28.7999H27.2Z" fill="#2C3E50" fill-opacity="0.71"/>
<path d="M8.50921 19.4205L8.76964 19.722L8.38482 19.8254C3.72204 21.0771 0.25 25.3331 0.25 30.3999C0.25 32.9178 2.28207 34.9499 4.8 34.9499C5.55793 34.9499 6.15 34.3578 6.15 33.5999C6.15 32.842 5.55793 32.2499 4.8 32.2499C3.76593 32.2499 2.95 31.434 2.95 30.3999C2.95 28.2119 3.81919 26.1134 5.36637 24.5663C6.91354 23.0191 9.01197 22.1499 11.2 22.1499H14.4C15.1579 22.1499 15.75 21.5578 15.75 20.7999C15.75 20.042 15.1579 19.4499 14.4 19.4499C11.6059 19.4499 9.35 17.194 9.35 14.3999C9.35 11.6058 11.6059 9.3499 14.4 9.3499C15.1579 9.3499 15.75 8.75783 15.75 7.9999C15.75 7.24197 15.1579 6.6499 14.4 6.6499C12.3446 6.6499 10.3733 7.46642 8.91992 8.91982C7.46651 10.3732 6.65 12.3445 6.65 14.3999C6.65 16.3226 7.33158 18.0569 8.50921 19.4205ZM39.6156 19.8255L39.2355 19.7241L39.4887 19.423C40.6381 18.0561 41.35 16.3201 41.35 14.3999C41.35 12.3445 40.5335 10.3732 39.0801 8.91982C37.6267 7.46642 35.6554 6.6499 33.6 6.6499C32.8421 6.6499 32.25 7.24197 32.25 7.9999C32.25 8.75783 32.8421 9.3499 33.6 9.3499C36.3941 9.3499 38.65 11.6058 38.65 14.3999C38.65 17.194 36.3941 19.4499 33.6 19.4499C32.8421 19.4499 32.25 20.042 32.25 20.7999C32.25 21.5578 32.8421 22.1499 33.6 22.1499H36.8C38.988 22.1499 41.0865 23.0191 42.6336 24.5663C44.1808 26.1134 45.05 28.2119 45.05 30.3999C45.05 31.434 44.2341 32.2499 43.2 32.2499C42.4421 32.2499 41.85 32.842 41.85 33.5999C41.85 34.3578 42.4421 34.9499 43.2 34.9499C45.7179 34.9499 47.75 32.9178 47.75 30.3999C47.75 25.3324 44.3093 21.0771 39.6156 19.8255ZM14.4 44.5499H33.6C36.1179 44.5499 38.15 42.5178 38.15 39.9999V36.7999C38.15 30.762 33.2379 25.8499 27.2 25.8499H20.8C14.7621 25.8499 9.85 30.762 9.85 36.7999V39.9999C9.85 42.5178 11.8821 44.5499 14.4 44.5499ZM27.2 28.5499C29.388 28.5499 31.4865 29.4191 33.0336 30.9663C34.5808 32.5134 35.45 34.6119 35.45 36.7999V39.9999C35.45 41.034 34.6341 41.8499 33.6 41.8499H14.4C13.3659 41.8499 12.55 41.034 12.55 39.9999V36.7999C12.55 34.6119 13.4192 32.5134 14.9664 30.9663C16.5135 29.4191 18.612 28.5499 20.8 28.5499H27.2Z" stroke="#2C3E50" stroke-opacity="0.59" stroke-width="0.5"/>
</svg>
