<svg width="39" height="32" viewBox="0 0 39 32" fill="none" xmlns="http://www.w3.org/2000/svg">
<path fill-rule="evenodd" clip-rule="evenodd" d="M8.50001 12.2C9.72 12.2 10.89 11.7153 11.7527 10.8526C12.6154 9.98998 13.1 8.81995 13.1 7.59995C13.1 6.37996 12.6154 5.20993 11.7527 4.34726C10.89 3.48459 9.72 2.99995 8.50001 2.99995C7.28001 2.99995 6.10998 3.48459 5.24732 4.34726C4.38465 5.20993 3.90001 6.37996 3.90001 7.59995C3.90001 8.81995 4.38465 9.98998 5.24732 10.8526C6.10998 11.7153 7.28001 12.2 8.50001 12.2ZM8.50001 14.5C9.40613 14.5 10.3034 14.3215 11.1405 13.9747C11.9777 13.628 12.7383 13.1197 13.379 12.479C14.0198 11.8383 14.528 11.0776 14.8748 10.2405C15.2215 9.40332 15.4 8.50607 15.4 7.59995C15.4 6.69383 15.2215 5.79658 14.8748 4.95944C14.528 4.12229 14.0198 3.36164 13.379 2.72092C12.7383 2.08019 11.9777 1.57194 11.1405 1.22518C10.3034 0.878425 9.40613 0.699951 8.50001 0.699951C6.67001 0.699951 4.91497 1.42691 3.62097 2.72092C2.32697 4.01492 1.60001 5.76996 1.60001 7.59995C1.60001 9.42995 2.32697 11.185 3.62097 12.479C4.91497 13.773 6.67001 14.5 8.50001 14.5Z" fill="#2C3E50"/>
<path fill-rule="evenodd" clip-rule="evenodd" d="M5.86421 11.9607C5.97131 12.0675 6.05628 12.1944 6.11425 12.3342C6.17223 12.4739 6.20207 12.6237 6.20207 12.7749C6.20207 12.9262 6.17223 13.076 6.11425 13.2157C6.05628 13.3554 5.97131 13.4823 5.86421 13.5891L5.08681 14.3642C3.59074 15.8607 2.75021 17.8901 2.75001 20.0061V24.2749C2.75001 24.5799 2.62885 24.8724 2.41319 25.0881C2.19752 25.3038 1.90501 25.4249 1.60001 25.4249C1.29501 25.4249 1.00251 25.3038 0.786839 25.0881C0.571173 24.8724 0.450012 24.5799 0.450012 24.2749V20.0061C0.450338 17.2801 1.53328 14.6658 3.46071 12.7381L4.23581 11.9607C4.34264 11.8536 4.46954 11.7687 4.60926 11.7107C4.74897 11.6527 4.89875 11.6229 5.05001 11.6229C5.20128 11.6229 5.35106 11.6527 5.49077 11.7107C5.63048 11.7687 5.75739 11.8536 5.86421 11.9607ZM32.9858 11.2707C32.8787 11.3775 32.7938 11.5044 32.7358 11.6442C32.6778 11.7839 32.648 11.9337 32.648 12.0849C32.648 12.2362 32.6778 12.386 32.7358 12.5257C32.7938 12.6654 32.8787 12.7923 32.9858 12.8991L33.7632 13.6742C34.5041 14.4151 35.0918 15.2947 35.4927 16.2628C35.8937 17.2308 36.1 18.2683 36.1 19.3161V24.2749C36.1 24.5799 36.2212 24.8724 36.4368 25.0881C36.6525 25.3038 36.945 25.4249 37.25 25.4249C37.555 25.4249 37.8475 25.3038 38.0632 25.0881C38.2789 24.8724 38.4 24.5799 38.4 24.2749V19.3161C38.3997 16.5901 37.3168 13.9758 35.3893 12.0481L34.6142 11.2707C34.5074 11.1636 34.3805 11.0787 34.2408 11.0207C34.1011 10.9627 33.9513 10.9329 33.8 10.9329C33.6488 10.9329 33.499 10.9627 33.3593 11.0207C33.2195 11.0787 33.0926 11.1636 32.9858 11.2707Z" fill="#2C3E50"/>
<path fill-rule="evenodd" clip-rule="evenodd" d="M29.2 12.1999C27.98 12.1999 26.81 11.7153 25.9473 10.8526C25.0847 9.98997 24.6 8.81995 24.6 7.59995C24.6 6.37995 25.0847 5.20993 25.9473 4.34726C26.81 3.48459 27.98 2.99995 29.2 2.99995C30.42 2.99995 31.59 3.48459 32.4527 4.34726C33.3154 5.20993 33.8 6.37995 33.8 7.59995C33.8 8.81995 33.3154 9.98997 32.4527 10.8526C31.59 11.7153 30.42 12.1999 29.2 12.1999ZM29.2 14.4999C28.2939 14.4999 27.3966 14.3215 26.5595 13.9747C25.7224 13.628 24.9617 13.1197 24.321 12.479C23.6803 11.8383 23.172 11.0776 22.8252 10.2405C22.4785 9.40332 22.3 8.50607 22.3 7.59995C22.3 6.69383 22.4785 5.79658 22.8252 4.95943C23.172 4.12229 23.6803 3.36164 24.321 2.72091C24.9617 2.08019 25.7224 1.57194 26.5595 1.22518C27.3966 0.878425 28.2939 0.699951 29.2 0.699951C31.03 0.699951 32.785 1.42691 34.079 2.72091C35.373 4.01492 36.1 5.76996 36.1 7.59995C36.1 9.42994 35.373 11.185 34.079 12.479C32.785 13.773 31.03 14.4999 29.2 14.4999ZM18.85 21.9749C17.325 21.9749 15.8625 22.5807 14.7842 23.6591C13.7058 24.7374 13.1 26.2 13.1 27.7249V30.7149C13.1 31.0199 12.9789 31.3125 12.7632 31.5281C12.5475 31.7438 12.255 31.8649 11.95 31.8649C11.645 31.8649 11.3525 31.7438 11.1368 31.5281C10.9212 31.3125 10.8 31.0199 10.8 30.7149V27.7249C10.8 25.59 11.6481 23.5424 13.1578 22.0327C14.6675 20.5231 16.715 19.6749 18.85 19.6749C20.985 19.6749 23.0326 20.5231 24.5422 22.0327C26.0519 23.5424 26.9 25.59 26.9 27.7249V30.7149C26.9 31.0199 26.7789 31.3125 26.5632 31.5281C26.3475 31.7438 26.055 31.8649 25.75 31.8649C25.445 31.8649 25.1525 31.7438 24.9368 31.5281C24.7212 31.3125 24.6 31.0199 24.6 30.7149V27.7249C24.6 26.9698 24.4513 26.2221 24.1623 25.5245C23.8734 24.8269 23.4498 24.193 22.9159 23.6591C22.3819 23.1251 21.7481 22.7016 21.0504 22.4126C20.3528 22.1237 19.6051 21.9749 18.85 21.9749Z" fill="#2C3E50"/>
<path fill-rule="evenodd" clip-rule="evenodd" d="M18.85 18.5249C20.07 18.5249 21.24 18.0403 22.1027 17.1776C22.9654 16.3149 23.45 15.1449 23.45 13.9249C23.45 12.7049 22.9654 11.5349 22.1027 10.6722C21.24 9.80955 20.07 9.3249 18.85 9.3249C17.63 9.3249 16.46 9.80955 15.5973 10.6722C14.7347 11.5349 14.25 12.7049 14.25 13.9249C14.25 15.1449 14.7347 16.3149 15.5973 17.1776C16.46 18.0403 17.63 18.5249 18.85 18.5249ZM18.85 20.8249C20.68 20.8249 22.4351 20.0979 23.7291 18.8039C25.0231 17.5099 25.75 15.7549 25.75 13.9249C25.75 12.0949 25.0231 10.3399 23.7291 9.04587C22.4351 7.75186 20.68 7.0249 18.85 7.0249C17.02 7.0249 15.265 7.75186 13.971 9.04587C12.677 10.3399 11.95 12.0949 11.95 13.9249C11.95 15.7549 12.677 17.5099 13.971 18.8039C15.265 20.0979 17.02 20.8249 18.85 20.8249Z" fill="#2C3E50"/>
</svg>
