<svg width="49" height="49" viewBox="0 0 49 49" fill="none" xmlns="http://www.w3.org/2000/svg">
<path d="M11.2918 36.5596L14.2148 27.671C15.4885 26.6279 16.9133 25.7843 18.4405 25.1693L24.516 24.6983L30.6318 25.199C32.1331 25.813 33.5337 26.6488 34.787 27.6784L37.8851 36.5596L34.823 45.253H14.1804L11.2918 36.5596Z" fill="white" stroke="#2C3E50" stroke-width="0.5"/>
<path d="M20.685 45.253V24.918H28.3V45.253H20.685Z" fill="white" stroke="#2C3E50" stroke-width="0.5"/>
<path d="M24.4999 28.7614L26.6441 29.1851L25.3083 32.0613L25.2765 32.1298L25.2879 32.2044L27.2839 45.2516H21.6865L23.6971 32.2047L23.7086 32.1299L23.6768 32.0613L22.3411 29.1854L24.4999 28.7614Z" fill="white" stroke="#2C3E50" stroke-width="0.5"/>
<path d="M20.685 30.578V23.718H24.5H28.315V30.578C28.315 30.8358 28.0156 30.9853 27.8062 30.8178L27.8056 30.8173L24.6556 28.3123L24.5 28.1886L24.3444 28.3123L21.1944 30.8173L21.1938 30.8178C20.9844 30.9853 20.685 30.8358 20.685 30.578Z" fill="#F4F4F4" stroke="#2C3E50" stroke-width="0.5"/>
<path d="M28.815 44.0115V24.8281H29.5474L29.57 24.8351L29.5707 24.8353C29.8857 24.9312 30.1969 25.0394 30.5034 25.1596L32.3138 29.0046L32.3141 29.0051C32.3701 29.1234 32.2824 29.2631 32.15 29.2631H30.5782C30.45 29.2602 30.3239 29.2957 30.216 29.365C30.1069 29.4351 30.0216 29.5364 29.9712 29.6558C29.9208 29.7753 29.9076 29.9071 29.9335 30.0341C29.9593 30.1609 30.0227 30.277 30.1155 30.3671C30.1157 30.3673 30.1158 30.3675 30.116 30.3676L32.1532 32.3599C32.1535 32.3602 32.1539 32.3605 32.1542 32.3609C32.4742 32.6816 32.5884 33.1656 32.4383 33.6176C32.4382 33.6181 32.438 33.6186 32.4378 33.6191L28.815 44.0115ZM20.185 24.8881V44.0565L16.561 33.6757L16.5611 33.6757L16.5594 33.6711C16.401 33.2448 16.5205 32.7619 16.8459 32.4358L18.8848 30.4419L18.8848 30.4419L18.8868 30.4399C19.2796 30.0471 19.0143 29.3381 18.425 29.3381H16.85C16.7176 29.3381 16.6299 29.1984 16.6859 29.0801L16.6861 29.0799L18.5498 25.1322C18.7645 25.0445 18.9818 24.9631 19.2013 24.8881H20.185ZM8.25001 40.2531L8.25 40.2517C8.22161 35.397 10.3902 31.0447 13.75 28.0491V45.2503L8.25001 45.253L8.25001 40.2531ZM35.25 45.253V28.0612C38.6194 31.043 40.75 35.4063 40.75 40.2501V45.2503L35.25 45.253Z" fill="white" stroke="#2C3E50" stroke-width="0.5"/>
<path d="M24.5 28.0001C22.9953 28.0001 21.75 26.6844 21.75 25.0116V20.9901C21.75 19.3173 22.9953 18.0016 24.5 18.0016C26.0048 18.0016 27.25 19.3173 27.25 20.9901V25.0131C27.25 26.6858 26.0049 28.0001 24.5 28.0001ZM19.405 16.3851C19.405 16.9832 19.1674 17.5568 18.7445 17.9797C18.3217 18.4025 17.7481 18.6401 17.15 18.6401C16.552 18.6401 15.9784 18.4025 15.5555 17.9797C15.1326 17.5568 14.895 16.9832 14.895 16.3851C14.895 15.7871 15.1326 15.2135 15.5555 14.7906C15.9784 14.3677 16.552 14.1301 17.15 14.1301C17.7481 14.1301 18.3217 14.3677 18.7445 14.7906C19.1674 15.2135 19.405 15.7871 19.405 16.3851ZM34.09 16.3851C34.09 16.9832 33.8524 17.5568 33.4295 17.9797C33.0067 18.4025 32.4331 18.6401 31.835 18.6401C31.237 18.6401 30.6634 18.4025 30.2405 17.9797C29.8176 17.5568 29.58 16.9832 29.58 16.3851C29.58 15.7871 29.8176 15.2135 30.2405 14.7906C30.6634 14.3677 31.237 14.1301 31.835 14.1301C32.4331 14.1301 33.0067 14.3677 33.4295 14.7906C33.8524 15.2135 34.09 15.7871 34.09 16.3851Z" fill="white" stroke="#2C3E50" stroke-width="0.5"/>
<path d="M17.1352 21.3905L16.5174 12.8499C16.2281 8.75154 19.5594 5.25 23.81 5.25H25.1885C29.4407 5.25 32.772 8.75158 32.4826 12.8499L31.8649 21.3899C31.6065 23.9371 29.5463 25.75 27.026 25.75H21.956C19.4375 25.75 17.3789 23.9225 17.1352 21.3905Z" fill="white" stroke="#2C3E50" stroke-width="0.5"/>
<path d="M16.6628 15.5551C16.603 15.5268 16.5468 15.4905 16.496 15.4467C16.3702 15.3384 16.2845 15.1908 16.2527 15.0279L15.4205 10.4514L15.4205 10.4514L15.4202 10.4497C15.3139 9.88698 15.3951 9.3049 15.6513 8.79271C15.9075 8.28052 16.3246 7.86647 16.8387 7.61403L16.8387 7.61406L16.8429 7.61193L17.4658 7.2915C17.9171 7.06492 18.3236 6.77832 18.6826 6.42763L25.8101 4.41118L25.8102 4.41155L25.8232 4.40706C26.3803 4.2157 26.9798 4.1838 27.554 4.31495C28.128 4.44606 28.654 4.7349 29.0727 5.1489C29.0729 5.14905 29.073 5.1492 29.0732 5.14936L30.2887 6.3649C30.6602 6.73636 31.0823 7.03987 31.554 7.27663C31.5543 7.27678 31.5546 7.27693 31.5549 7.27708L32.1771 7.59566L32.1793 7.59679C33.2349 8.12387 33.8154 9.2934 33.5692 10.425L33.5691 10.4249L33.5675 10.4333L32.7335 15.0143L32.7334 15.015C32.7045 15.1761 32.6218 15.3227 32.4987 15.4306C32.4509 15.4725 32.3982 15.5075 32.342 15.5353C32.3503 15.4204 32.3602 15.2826 32.3709 15.1317C32.4009 14.7075 32.4369 14.1784 32.461 13.7606C32.461 13.7602 32.4611 13.7599 32.4611 13.7595L32.2115 13.7451M16.6628 15.5551L31.9128 12.4229L31.7465 12.6096M16.6628 15.5551C16.6542 15.4374 16.644 15.2955 16.6331 15.1399C16.6029 14.7112 16.5667 14.1772 16.5434 13.7591C16.5288 13.5097 16.5703 13.2603 16.6648 13.0291C16.7595 12.7977 16.9049 12.5905 17.0903 12.4227L17.0919 12.4213L17.0919 12.4213L17.3606 12.1824C17.6936 11.8774 17.872 11.4791 17.872 11.0391V9.76205M16.6628 15.5551L17.872 9.76205M32.2115 13.7451C32.2259 13.5329 32.1915 13.3202 32.1109 13.1234C32.0303 12.9265 31.9056 12.7508 31.7465 12.6096M32.2115 13.7451C32.1766 14.3501 32.1164 15.1919 32.0861 15.6069L32.2115 13.7451ZM31.7465 12.6096L31.9124 12.4226M31.7465 12.6096L31.9124 12.4226M31.9124 12.4226L31.6248 12.1664L31.6234 12.1652C31.4633 12.0248 31.3352 11.8517 31.2477 11.6576C31.1602 11.4635 31.1153 11.2529 31.116 11.04V11.0391V9.76042V9.75962H30.866M31.9124 12.4226L30.7022 9.27291C30.8095 9.41234 30.8672 9.58366 30.866 9.75962M30.866 9.75962V11.0391V9.75962ZM18.6524 8.74757C18.6528 8.74748 18.6532 8.74738 18.6536 8.74729L18.713 8.99012L18.6515 8.74782C18.6518 8.74773 18.6521 8.74765 18.6524 8.74757ZM18.6524 8.74757C18.4263 8.80318 18.2259 8.93407 18.084 9.11875C17.9425 9.30301 17.8678 9.52982 17.872 9.76205M18.6524 8.74757L17.872 9.76205" fill="white" stroke="#2C3E50" stroke-width="0.5"/>
<path d="M30.245 15.92C30.02 14.99 29.18 14.3 28.175 14.3C27.125 14.3 26.27 15.035 26.075 16.025C26.03 16.25 26.195 16.445 26.42 16.445H29.84C30.11 16.445 30.305 16.19 30.245 15.92ZM30.245 15.92L30.001 15.9743C30.0011 15.9749 30.0012 15.9756 30.0014 15.9762M30.245 15.92L30.002 15.9788C30.0018 15.978 30.0016 15.9771 30.0014 15.9762M30.0014 15.9762C29.8022 15.158 29.0618 14.55 28.175 14.55C27.2471 14.55 26.4927 15.198 26.3203 16.0734L26.3201 16.0741C26.3125 16.1124 26.3229 16.1408 26.3387 16.1598C26.3549 16.1794 26.3819 16.195 26.42 16.195H29.84C29.9388 16.195 30.0277 16.0998 30.0014 15.9762ZM19.0098 15.9906L19.0101 15.9907L19.013 15.9788C19.2113 15.1593 19.9522 14.55 20.84 14.55C21.7679 14.55 22.5223 15.198 22.6947 16.0734L22.6946 16.0734L22.696 16.0795C22.6991 16.0935 22.699 16.1082 22.6957 16.1222L22.6957 16.1222C22.6923 16.1362 22.6858 16.1493 22.6767 16.1604L22.6767 16.1604C22.6675 16.1716 22.656 16.1805 22.6428 16.1865C22.6297 16.1925 22.6154 16.1955 22.601 16.1951L22.601 16.195H22.595H19.175C19.1255 16.195 19.0756 16.1701 19.0409 16.1252C19.0063 16.0805 18.9979 16.0311 19.0098 15.9906Z" fill="white" stroke="#2C3E50" stroke-width="0.5"/>
<path d="M21.155 14.9701L21.1578 14.97C21.3043 14.9684 21.4497 14.9961 21.5854 15.0514C21.721 15.1067 21.8443 15.1885 21.9479 15.2922C22.0515 15.3958 22.1334 15.519 22.1887 15.6547C22.244 15.7904 22.2717 15.9358 22.27 16.0823L22.27 16.0823V16.0851C22.27 16.1216 22.2683 16.1583 22.2649 16.1951H20.0451C20.0418 16.1585 20.0401 16.1217 20.04 16.0849C20.0401 15.473 20.5431 14.9701 21.155 14.9701ZM27.86 14.9701C28.4719 14.9701 28.975 15.4731 28.975 16.0851C28.975 16.1216 28.9733 16.1583 28.9699 16.1951H26.7501C26.7467 16.1583 26.745 16.1216 26.745 16.0851C26.745 15.4713 27.2349 14.9701 27.86 14.9701Z" fill="white" stroke="#2C3E50" stroke-width="0.5"/>
<path d="M21.1524 15.555L21.1524 15.555L21.1576 15.555C21.2487 15.554 21.3384 15.5768 21.418 15.6211C21.4975 15.6654 21.5642 15.7297 21.6113 15.8076C21.6585 15.8855 21.6845 15.9744 21.6869 16.0654C21.688 16.1091 21.6836 16.1527 21.674 16.195H20.636C20.6264 16.1527 20.622 16.1091 20.6232 16.0654C20.6255 15.9744 20.6516 15.8855 20.6987 15.8076C20.7459 15.7297 20.8125 15.6654 20.8921 15.6211C20.9716 15.5768 21.0614 15.554 21.1524 15.555ZM27.5971 15.6211C27.6766 15.5768 27.7664 15.554 27.8574 15.555L27.8574 15.555L27.8626 15.555C27.9537 15.554 28.0434 15.5768 28.123 15.6211L28.2442 15.4035L28.123 15.6211C28.2025 15.6654 28.2692 15.7297 28.3163 15.8076C28.3635 15.8855 28.3895 15.9744 28.3919 16.0654C28.393 16.1091 28.3886 16.1527 28.379 16.195H27.341C27.3314 16.1527 27.327 16.1091 27.3282 16.0654C27.3305 15.9744 27.3565 15.8855 27.4037 15.8076C27.4509 15.7297 27.5175 15.6654 27.5971 15.6211Z" fill="white" stroke="#2C3E50" stroke-width="0.5"/>
<mask id="path-12-inside-1_489_1645" fill="white">
<path d="M20.93 15.53C20.93 15.5937 20.9047 15.6547 20.8597 15.6997C20.8147 15.7448 20.7537 15.77 20.69 15.77C20.6264 15.77 20.5653 15.7448 20.5203 15.6997C20.4753 15.6547 20.45 15.5937 20.45 15.53C20.45 15.4664 20.4753 15.4053 20.5203 15.3603C20.5653 15.3153 20.6264 15.29 20.69 15.29C20.7537 15.29 20.8147 15.3153 20.8597 15.3603C20.9047 15.4053 20.93 15.4664 20.93 15.53ZM27.68 15.53C27.68 15.5937 27.6547 15.6547 27.6097 15.6997C27.5647 15.7448 27.5037 15.77 27.44 15.77C27.3764 15.77 27.3153 15.7448 27.2703 15.6997C27.2253 15.6547 27.2 15.5937 27.2 15.53C27.2 15.4664 27.2253 15.4053 27.2703 15.3603C27.3153 15.3153 27.3764 15.29 27.44 15.29C27.5037 15.29 27.5647 15.3153 27.6097 15.3603C27.6547 15.4053 27.68 15.4664 27.68 15.53Z"/>
</mask>
<path d="M20.93 15.53C20.93 15.5937 20.9047 15.6547 20.8597 15.6997C20.8147 15.7448 20.7537 15.77 20.69 15.77C20.6264 15.77 20.5653 15.7448 20.5203 15.6997C20.4753 15.6547 20.45 15.5937 20.45 15.53C20.45 15.4664 20.4753 15.4053 20.5203 15.3603C20.5653 15.3153 20.6264 15.29 20.69 15.29C20.7537 15.29 20.8147 15.3153 20.8597 15.3603C20.9047 15.4053 20.93 15.4664 20.93 15.53ZM27.68 15.53C27.68 15.5937 27.6547 15.6547 27.6097 15.6997C27.5647 15.7448 27.5037 15.77 27.44 15.77C27.3764 15.77 27.3153 15.7448 27.2703 15.6997C27.2253 15.6547 27.2 15.5937 27.2 15.53C27.2 15.4664 27.2253 15.4053 27.2703 15.3603C27.3153 15.3153 27.3764 15.29 27.44 15.29C27.5037 15.29 27.5647 15.3153 27.6097 15.3603C27.6547 15.4053 27.68 15.4664 27.68 15.53Z" fill="white"/>
<path d="M20.93 15.53H20.43H20.93ZM20.43 15.53C20.43 15.4611 20.4574 15.395 20.5062 15.3462L21.2133 16.0533C21.352 15.9145 21.43 15.7263 21.43 15.53H20.43ZM20.5062 15.3462C20.5549 15.2974 20.6211 15.27 20.69 15.27V16.27C20.8863 16.27 21.0745 16.1921 21.2133 16.0533L20.5062 15.3462ZM20.69 15.27C20.759 15.27 20.8251 15.2974 20.8739 15.3462L20.1668 16.0533C20.3055 16.1921 20.4937 16.27 20.69 16.27V15.27ZM20.8739 15.3462C20.9226 15.395 20.95 15.4611 20.95 15.53H19.95C19.95 15.7263 20.028 15.9145 20.1668 16.0533L20.8739 15.3462ZM20.95 15.53C20.95 15.599 20.9226 15.6651 20.8739 15.7139L20.1668 15.0068C20.028 15.1456 19.95 15.3338 19.95 15.53H20.95ZM20.8739 15.7139C20.8251 15.7626 20.759 15.79 20.69 15.79V14.79C20.4937 14.79 20.3055 14.868 20.1668 15.0068L20.8739 15.7139ZM20.69 15.79C20.6211 15.79 20.5549 15.7626 20.5062 15.7139L21.2133 15.0068C21.0745 14.868 20.8863 14.79 20.69 14.79V15.79ZM20.5062 15.7139C20.4574 15.6651 20.43 15.599 20.43 15.53H21.43C21.43 15.3338 21.3521 15.1456 21.2133 15.0068L20.5062 15.7139ZM27.18 15.53C27.18 15.4611 27.2074 15.3949 27.2562 15.3462L27.9633 16.0533C28.102 15.9145 28.18 15.7263 28.18 15.53H27.18ZM27.2562 15.3462C27.3049 15.2974 27.3711 15.27 27.44 15.27V16.27C27.6363 16.27 27.8245 16.1921 27.9633 16.0533L27.2562 15.3462ZM27.44 15.27C27.509 15.27 27.5751 15.2974 27.6239 15.3462L26.9168 16.0533C27.0555 16.1921 27.2437 16.27 27.44 16.27V15.27ZM27.6239 15.3462C27.6726 15.3949 27.7 15.4611 27.7 15.53H26.7C26.7 15.7263 26.778 15.9145 26.9168 16.0533L27.6239 15.3462ZM27.7 15.53C27.7 15.599 27.6726 15.6651 27.6239 15.7139L26.9168 15.0068C26.778 15.1456 26.7 15.3338 26.7 15.53H27.7ZM27.6239 15.7139C27.5751 15.7626 27.509 15.79 27.44 15.79V14.79C27.2437 14.79 27.0555 14.868 26.9168 15.0068L27.6239 15.7139ZM27.44 15.79C27.3711 15.79 27.3049 15.7626 27.2562 15.7139L27.9633 15.0068C27.8245 14.868 27.6363 14.79 27.44 14.79V15.79ZM27.2562 15.7139C27.2074 15.6651 27.18 15.599 27.18 15.53H28.18C28.18 15.3338 28.102 15.1456 27.9633 15.0068L27.2562 15.7139Z" fill="#2C3E50" mask="url(#path-12-inside-1_489_1645)"/>
<path d="M23.4772 18.6116L23.4774 18.6107L24.2213 16.0041C24.2213 16.004 24.2213 16.004 24.2213 16.004C24.2742 15.8198 24.405 15.7498 24.5187 15.7498C24.6315 15.7498 24.7577 15.8183 24.8059 15.9994L24.8059 15.9994L24.8071 16.0037L25.5511 18.6107L25.5513 18.6116C25.668 19.0149 25.3844 19.3751 25.0625 19.3751H23.9675C23.6426 19.3751 23.3605 19.0149 23.4772 18.6116Z" fill="white" stroke="#2C3E50" stroke-width="0.5"/>
<path d="M22.1173 20.699C22.1193 20.699 22.1216 20.6988 22.1239 20.6983C22.1285 20.6974 22.1304 20.6958 22.1304 20.6958C22.1304 20.6958 22.13 20.6961 22.1293 20.6969C22.1273 20.6993 22.1259 20.7024 22.1254 20.7051C22.1223 20.7034 22.1191 20.7016 22.116 20.6998L22.1173 20.699ZM22.1173 20.699L22.238 20.4816C22.895 20.8491 23.675 21.0591 24.5 21.0591M22.1173 20.699L26.7635 20.4816C26.07 20.8625 25.2912 21.0612 24.5 21.0591M24.5 21.0591L24.4993 21.3091C24.4995 21.3091 24.4996 21.3091 24.4997 21.3091C24.4998 21.3091 24.4999 21.3091 24.5 21.3091V21.0591Z" fill="white" stroke="#2C3E50" stroke-width="0.5"/>
<path d="M24.4955 3.75157V3.75164L24.5014 3.7515C24.7474 3.74571 29.1283 3.6466 32.9627 6.03868L32.9639 6.03941C34.3202 6.87514 34.5835 8.71393 33.5 9.83806L33.4982 9.83992L32.4812 10.9169L32.1879 11.2275L32.2234 11.2364L31.8846 11.6345L31.8846 11.6346C30.8219 12.8839 29.2715 13.6016 27.635 13.6016H21.35C19.7132 13.6016 18.1636 12.8837 17.1165 11.6359L17.1154 11.6345L16.5154 10.9295L16.4405 10.8416H16.4178L15.4718 9.83991L15.471 9.83915C14.383 8.69668 14.6391 6.8449 16.0033 6.02613C19.8211 3.75154 24.3815 3.75157 24.4848 3.75157H24.485H24.4955Z" fill="white" stroke="#2C3E50" stroke-width="0.5"/>
<path d="M31.3627 9.79096L31.3627 9.79097L31.365 9.79145C31.8714 9.89479 32.2594 10.2773 32.3832 10.7594C30.3111 10.2459 28.3918 9.99244 26.9669 9.86745C26.2136 9.80137 25.5977 9.77113 25.1694 9.7574C24.9553 9.75054 24.788 9.74781 24.6738 9.7468C24.6168 9.74629 24.573 9.74621 24.5433 9.74627L24.5093 9.74641L24.5004 9.74648H24.4996L24.4907 9.74641L24.4568 9.74627C24.427 9.74621 24.3832 9.74629 24.3262 9.7468C24.212 9.74781 24.0447 9.75054 23.8306 9.7574C23.4023 9.77113 22.7864 9.80137 22.0332 9.86745C20.6082 9.99244 18.6889 10.2459 16.6168 10.7594C16.7406 10.2773 17.1286 9.89479 17.635 9.79145L17.635 9.79145L17.6363 9.79118C21.0486 9.07593 23.8351 9.03149 24.425 9.03149H24.575C25.1511 9.03149 27.9517 9.06109 31.3627 9.79096Z" fill="white" stroke="#2C3E50" stroke-width="0.5"/>
<path d="M26.8083 6.61557L26.8083 6.61557L26.8075 6.61708C26.7937 6.64188 26.7829 6.64976 26.7797 6.65179L26.7797 6.65181C26.7777 6.65305 26.7723 6.65649 26.756 6.65649H24.8112L25.5637 5.32392L25.5637 5.32392L25.5645 5.32241C25.5786 5.29705 25.5898 5.28852 25.5935 5.28615C25.5957 5.28472 25.6008 5.28149 25.616 5.28149H27.5616L26.8083 6.61557Z" fill="white" stroke="#2C3E50" stroke-width="0.5"/>
<path d="M22.1782 6.632L22.1782 6.63199L22.1773 6.63028L21.4329 5.29663H23.3885C23.4024 5.29663 23.4072 5.29959 23.4097 5.30124C23.4139 5.30395 23.4256 5.31313 23.44 5.33904L23.44 5.33904L23.4406 5.34013L24.189 6.67163H22.229C22.2129 6.67163 22.2077 6.66829 22.206 6.66719L22.2059 6.66714C22.203 6.66528 22.1922 6.65743 22.1782 6.632ZM35.54 30.6281H35.3168C35.2399 30.6272 35.1644 30.6477 35.0985 30.6872L35.2271 30.9016L35.0985 30.6872C35.0317 30.7273 34.9776 30.7852 34.9423 30.8545L34.942 30.8544L34.937 30.8655L34.8044 31.1602C34.7539 31.2579 34.6588 31.3181 34.55 31.3181H32.945C32.8362 31.3181 32.7411 31.2579 32.6906 31.1602L32.558 30.8655L32.5582 30.8654L32.5527 30.8545C32.5173 30.7852 32.4632 30.7273 32.3965 30.6872L32.2679 30.9016C32.2414 30.8857 32.2109 30.8776 32.18 30.8781V30.6281H32.1782H31.94C31.9207 30.6281 31.8951 30.6188 31.8728 30.5946C31.8505 30.5704 31.8427 30.5431 31.8443 30.5223C31.8465 30.4932 31.8588 30.4711 31.8781 30.4544C31.8986 30.4368 31.9301 30.4231 31.97 30.4231H32.9C33.1433 30.4231 33.3642 30.5565 33.4754 30.7589C33.4907 30.8027 33.5175 30.8436 33.5562 30.8762C33.6154 30.926 33.6828 30.9406 33.7344 30.9406C33.8348 30.9406 33.9405 30.8861 33.9936 30.7799C34.1007 30.5658 34.3283 30.4231 34.58 30.4231H35.54C35.5844 30.4231 35.6486 30.4636 35.6632 30.5458C35.6582 30.5668 35.6473 30.5835 35.6319 30.5968C35.6114 30.6144 35.5799 30.6281 35.54 30.6281Z" fill="white" stroke="#2C3E50" stroke-width="0.5"/>
<path d="M25.2513 7.93685C25.052 8.13611 24.7818 8.24805 24.5 8.24805C24.2182 8.24805 23.948 8.13611 23.7487 7.93685C23.5494 7.73759 23.4375 7.46734 23.4375 7.18555C23.4375 6.90375 23.5494 6.6335 23.7487 6.43425C23.948 6.23499 24.2182 6.12305 24.5 6.12305C24.7818 6.12305 25.052 6.23499 25.2513 6.43425C25.4506 6.6335 25.5625 6.90375 25.5625 7.18555C25.5625 7.46734 25.4506 7.73759 25.2513 7.93685Z" fill="white" stroke="#2C3E50" stroke-width="0.5"/>
<mask id="path-21-inside-2_489_1645" fill="white">
<path d="M24.587 6.40562L24.743 6.74612C24.7565 6.77612 24.785 6.79112 24.8135 6.80612L25.1675 6.85112C25.238 6.86462 25.28 6.95312 25.2245 7.01312L24.9695 7.28012C24.9395 7.31012 24.9395 7.33862 24.9395 7.36862L25.04 7.72412C25.0685 7.79912 24.983 7.87262 24.9125 7.84262L24.5435 7.66412C24.5306 7.65702 24.5162 7.65331 24.5015 7.65331C24.4868 7.65331 24.4724 7.65702 24.4595 7.66412L24.0905 7.84262C24.0734 7.85044 24.0544 7.853 24.0358 7.84995C24.0173 7.84691 24.0001 7.8384 23.9864 7.82552C23.9727 7.81264 23.9631 7.79596 23.959 7.77763C23.9548 7.7593 23.9562 7.74015 23.963 7.72262L24.062 7.36862C24.077 7.33862 24.062 7.29362 24.035 7.27862L23.78 7.01312C23.723 6.95312 23.75 6.86461 23.8355 6.84961L24.1895 6.80462C24.2195 6.80462 24.2465 6.77462 24.2615 6.74612L24.416 6.40562C24.4595 6.33062 24.5435 6.33062 24.587 6.40562Z"/>
</mask>
<path d="M24.587 6.40562L24.743 6.74612C24.7565 6.77612 24.785 6.79112 24.8135 6.80612L25.1675 6.85112C25.238 6.86462 25.28 6.95312 25.2245 7.01312L24.9695 7.28012C24.9395 7.31012 24.9395 7.33862 24.9395 7.36862L25.04 7.72412C25.0685 7.79912 24.983 7.87262 24.9125 7.84262L24.5435 7.66412C24.5306 7.65702 24.5162 7.65331 24.5015 7.65331C24.4868 7.65331 24.4724 7.65702 24.4595 7.66412L24.0905 7.84262C24.0734 7.85044 24.0544 7.853 24.0358 7.84995C24.0173 7.84691 24.0001 7.8384 23.9864 7.82552C23.9727 7.81264 23.9631 7.79596 23.959 7.77763C23.9548 7.7593 23.9562 7.74015 23.963 7.72262L24.062 7.36862C24.077 7.33862 24.062 7.29362 24.035 7.27862L23.78 7.01312C23.723 6.95312 23.75 6.86461 23.8355 6.84961L24.1895 6.80462C24.2195 6.80462 24.2465 6.77462 24.2615 6.74612L24.416 6.40562C24.4595 6.33062 24.5435 6.33062 24.587 6.40562Z" fill="white"/>
<path d="M24.587 6.40562L25.0416 6.19736L25.0316 6.17553L25.0195 6.15476L24.587 6.40562ZM24.743 6.74612L25.199 6.54093L25.1976 6.53786L24.743 6.74612ZM24.8135 6.80612L24.5806 7.24857L24.6607 7.29071L24.7504 7.30212L24.8135 6.80612ZM25.1675 6.85112L25.2615 6.36004L25.2461 6.35709L25.2306 6.35511L25.1675 6.85112ZM25.2245 7.01312L25.5861 7.35849L25.5915 7.35264L25.2245 7.01312ZM24.9695 7.28012L25.3231 7.63376L25.3311 7.62545L24.9695 7.28012ZM24.9395 7.36862H24.4395V7.43793L24.4584 7.50464L24.9395 7.36862ZM25.04 7.72412L24.5589 7.86014L24.5648 7.88123L24.5726 7.90172L25.04 7.72412ZM24.9125 7.84262L24.6948 8.29272L24.7056 8.29797L24.7167 8.30269L24.9125 7.84262ZM24.5435 7.66412L24.3021 8.10199L24.3138 8.10842L24.3258 8.11422L24.5435 7.66412ZM24.5015 7.65331V8.15331V7.65331ZM24.4595 7.66412L24.6772 8.11422L24.6892 8.10842L24.7009 8.10199L24.4595 7.66412ZM24.0905 7.84262L24.2988 8.29728L24.3082 8.29272L24.0905 7.84262ZM23.963 7.72262L24.4293 7.90298L24.438 7.88049L24.4445 7.85728L23.963 7.72262ZM24.062 7.36862L23.6148 7.14501L23.5934 7.18784L23.5805 7.23395L24.062 7.36862ZM24.035 7.27862L23.6744 7.62496L23.7265 7.67918L23.7922 7.71569L24.035 7.27862ZM23.78 7.01312L23.4175 7.35749L23.4194 7.35946L23.78 7.01312ZM23.8355 6.84961L23.7724 6.35361L23.7607 6.3551L23.7491 6.35714L23.8355 6.84961ZM24.1895 6.80462V6.30462H24.1578L24.1264 6.30861L24.1895 6.80462ZM24.2615 6.74612L24.704 6.97899L24.7108 6.96604L24.7168 6.95272L24.2615 6.74612ZM24.416 6.40562L23.9835 6.15476L23.971 6.17632L23.9607 6.19901L24.416 6.40562ZM24.1324 6.61387L24.2884 6.95437L25.1976 6.53786L25.0416 6.19736L24.1324 6.61387ZM24.287 6.9513C24.3374 7.06324 24.4123 7.13604 24.4707 7.18028C24.5215 7.21881 24.5735 7.24484 24.5806 7.24857L25.0464 6.36366C25.025 6.35239 25.0485 6.36342 25.0746 6.3832C25.1082 6.40869 25.1621 6.45899 25.199 6.54093L24.287 6.9513ZM24.7504 7.30212L25.1044 7.34712L25.2306 6.35511L24.8766 6.31011L24.7504 7.30212ZM25.0735 7.34219C24.9281 7.31436 24.824 7.21413 24.7782 7.09845C24.7268 6.96836 24.7425 6.7979 24.8574 6.67359L25.5915 7.35264C25.762 7.16833 25.7844 6.92362 25.7083 6.7309C25.6378 6.5526 25.4774 6.40137 25.2615 6.36004L25.0735 7.34219ZM24.8629 6.66778L24.6079 6.93478L25.3311 7.62545L25.5861 7.35845L24.8629 6.66778ZM24.6159 6.92656C24.5387 7.00378 24.4853 7.09721 24.4589 7.20017C24.437 7.28576 24.4395 7.36348 24.4395 7.36862H25.4395C25.4395 7.34375 25.442 7.39222 25.4276 7.44856C25.4087 7.52227 25.3703 7.58645 25.3231 7.63367L24.6159 6.92656ZM24.4584 7.50464L24.5589 7.86014L25.5211 7.58809L25.4206 7.23259L24.4584 7.50464ZM24.5726 7.90172C24.4983 7.70623 24.5866 7.53428 24.6786 7.45135C24.7655 7.37301 24.929 7.30626 25.1083 7.38254L24.7167 8.30269C24.9665 8.40897 25.208 8.32047 25.3481 8.19413C25.4934 8.0632 25.6102 7.817 25.5074 7.54651L24.5726 7.90172ZM25.1302 7.39251L24.7612 7.21401L24.3258 8.11422L24.6948 8.29272L25.1302 7.39251ZM24.7849 7.22624C24.6981 7.1784 24.6006 7.15331 24.5015 7.15331V8.15331C24.4318 8.15331 24.3632 8.13565 24.3021 8.10199L24.7849 7.22624ZM24.5015 7.15331C24.4024 7.15331 24.3049 7.1784 24.2181 7.22624L24.7009 8.10199C24.6398 8.13565 24.5712 8.15331 24.5015 8.15331V7.15331ZM24.2418 7.21401L23.8728 7.39251L24.3082 8.29272L24.6772 8.11422L24.2418 7.21401ZM23.8822 7.38805C23.9556 7.35445 24.0372 7.34349 24.1168 7.35656L23.9548 8.34335C24.0715 8.36251 24.1913 8.34643 24.2988 8.29718L23.8822 7.38805ZM24.1168 7.35656C24.1964 7.36963 24.2703 7.40613 24.3291 7.46142L23.6437 8.18962C23.7298 8.27067 23.8381 8.32419 23.9548 8.34335L24.1168 7.35656ZM24.3291 7.46142C24.3878 7.51671 24.4287 7.58825 24.4466 7.6669L23.4714 7.88837C23.4976 8.00368 23.5576 8.10857 23.6437 8.18962L24.3291 7.46142ZM24.4466 7.6669C24.4644 7.74555 24.4584 7.82775 24.4293 7.90298L23.4967 7.54226C23.454 7.65255 23.4452 7.77305 23.4714 7.88837L24.4466 7.6669ZM24.4445 7.85728L24.5435 7.50328L23.5805 7.23395L23.4815 7.58795L24.4445 7.85728ZM24.5092 7.59222C24.5891 7.43239 24.5743 7.27428 24.5417 7.16945C24.5099 7.06731 24.4339 6.92825 24.2778 6.84154L23.7922 7.71569C23.6631 7.64398 23.6081 7.53492 23.5868 7.46653C23.5647 7.39545 23.5499 7.27484 23.6148 7.14501L24.5092 7.59222ZM24.3956 6.93227L24.1406 6.66677L23.4194 7.35946L23.6744 7.62496L24.3956 6.93227ZM24.1425 6.66874C24.2308 6.76167 24.2807 6.91372 24.2295 7.07005C24.1773 7.22939 24.0445 7.32058 23.9219 7.34209L23.7491 6.35714C23.541 6.39365 23.3519 6.53659 23.2791 6.75893C23.2073 6.97826 23.2722 7.20456 23.4175 7.35749L24.1425 6.66874ZM23.8986 7.34562L24.2526 7.30062L24.1264 6.30861L23.7724 6.35361L23.8986 7.34562ZM24.1895 7.30462C24.3738 7.30462 24.502 7.21454 24.5644 7.15882C24.6307 7.0995 24.6753 7.03338 24.704 6.97899L23.819 6.51324C23.8327 6.48735 23.8563 6.45048 23.8979 6.41329C23.9355 6.37969 24.0352 6.30462 24.1895 6.30462V7.30462ZM24.7168 6.95272L24.8713 6.61222L23.9607 6.19901L23.8062 6.53951L24.7168 6.95272ZM24.8485 6.65647C24.7993 6.74138 24.6819 6.84937 24.5015 6.84937C24.3211 6.84937 24.2037 6.74138 24.1545 6.65647L25.0195 6.15476C24.9268 5.99485 24.7456 5.84937 24.5015 5.84937C24.2574 5.84937 24.0762 5.99485 23.9835 6.15476L24.8485 6.65647Z" fill="#2C3E50" mask="url(#path-21-inside-2_489_1645)"/>
</svg>
