<svg width="48" height="49" viewBox="0 0 48 49" fill="none" xmlns="http://www.w3.org/2000/svg">
<path d="M12 18.5C12 21.6826 13.2643 24.7348 15.5147 26.9853C17.7652 29.2357 20.8174 30.5 24 30.5C27.1826 30.5 30.2348 29.2357 32.4853 26.9853C34.7357 24.7348 36 21.6826 36 18.5C36 15.3174 34.7357 12.2652 32.4853 10.0147C30.2348 7.76428 27.1826 6.5 24 6.5C20.8174 6.5 17.7652 7.76428 15.5147 10.0147C13.2643 12.2652 12 15.3174 12 18.5Z" stroke="#2C3E50" stroke-width="1.5" stroke-linecap="round" stroke-linejoin="round"/>
<path d="M24 30.5L30.8 42.28L33.996 35.814L41.192 36.278L34.392 24.5M13.604 24.5L6.804 36.28L14 35.814L17.196 42.278L23.996 30.5" stroke="#2C3E50" stroke-width="1.5" stroke-linecap="round" stroke-linejoin="round"/>
</svg>
